<svg xmlns="http://www.w3.org/2000/svg" viewBox="0 0 200 220">
  <defs>
    <clipPath id="dc"><polygon points="100,8 192,100 100,212 8,100"/></clipPath>
  </defs>
  <polygon points="100,12 194,104 100,216 6,104" fill="rgba(0,0,0,0.12)" transform="translate(3,3)"/>
  <polygon points="100,8 192,100 100,212 8,100" fill="white"/>
  <rect x="8" y="8" width="54" height="212" fill="#009A44" clip-path="url(#dc)"/>
  <rect x="62" y="8" width="76" height="212" fill="white" clip-path="url(#dc)"/>
  <rect x="138" y="8" width="54" height="212" fill="#009A44" clip-path="url(#dc)"/>
  <polygon points="100,8 192,100 100,212 8,100" fill="none" stroke="#C8A600" stroke-width="7"/>
  <polygon points="100,20 180,100 100,200 20,100" fill="none" stroke="#C8A600" stroke-width="2" opacity="0.5"/>
  <circle cx="100" cy="110" r="44" fill="white" stroke="#C8A600" stroke-width="3"/>
  <circle cx="100" cy="110" r="40" fill="none" stroke="#009A44" stroke-width="2.5"/>
  <text x="100" y="122" font-family="Georgia,serif" font-size="30" font-weight="bold" fill="#009A44" text-anchor="middle" letter-spacing="1">RBB</text>
  <rect x="70" y="54" width="60" height="11" rx="2" fill="#C8A600"/>
  <polygon points="70,54 70,38 82,46 90,32 100,44 110,32 118,46 130,38 130,54" fill="#C8A600"/>
  <circle cx="90" cy="36" r="4" fill="#CC1122"/>
  <circle cx="100" cy="46" r="3" fill="#CC1122"/>
  <circle cx="110" cy="36" r="4" fill="#CC1122"/>
  <rect x="70" y="54" width="60" height="4" fill="#A07800"/>
</svg>
